<svg xmlns="http://www.w3.org/2000/svg" width="30.003" height="30"><g data-name="Group 87" opacity=".653" fill="#e27866"><path data-name="Path 68" d="M4.091 21.818a3.946 3.946 0 00-2.9 1.193 4.116 4.116 0 000 5.8 3.947 3.947 0 002.9 1.193 3.946 3.946 0 002.9-1.193 4.115 4.115 0 000-5.8 3.945 3.945 0 00-2.9-1.193z"/><path data-name="Path 69" d="M13.508 16.491a18.838 18.838 0 00-5.518-3.867 19.1 19.1 0 00-6.52-1.716h-.106a1.241 1.241 0 00-.916.362 1.255 1.255 0 00-.447 1v2.876a1.311 1.311 0 00.351.916 1.294 1.294 0 00.884.426 13.253 13.253 0 018.341 3.931 13.25 13.25 0 013.931 8.341 1.332 1.332 0 001.342 1.236h2.876a1.255 1.255 0 001-.447 1.292 1.292 0 00.363-1.023 19.114 19.114 0 00-1.715-6.519 18.84 18.84 0 00-3.866-5.516z"/><path data-name="Path 70" d="M27.442 17.887a29.871 29.871 0 00-6.264-9.066 29.868 29.868 0 00-9.066-6.264A29.567 29.567 0 001.427 0h-.063a1.275 1.275 0 00-.938.38A1.26 1.26 0 000 1.364V4.41a1.305 1.305 0 00.373.927 1.275 1.275 0 00.905.416 24.14 24.14 0 018.7 2.174 24.5 24.5 0 017.159 4.932 24.5 24.5 0 014.932 7.159 23.818 23.818 0 012.152 8.7 1.276 1.276 0 00.415.906 1.333 1.333 0 00.949.373h3.046a1.259 1.259 0 00.98-.426 1.233 1.233 0 00.384-1 29.564 29.564 0 00-2.553-10.684z"/></g></svg>