<svg xmlns="http://www.w3.org/2000/svg" width="246.745" height="107.614"><g data-name="Group 85"><g data-name="Group 8"><g data-name="Group 6" fill="#e27866"><path data-name="Path 31" d="M9.909 95.537h1.33v9.5h-1.33v-4.388H5.264v4.385h-1.33v-9.5h1.33v3.96h4.645z"/><path data-name="Path 32" d="M13.026 106.365a2.307 2.307 0 00.392.13 1.8 1.8 0 00.472.062 1.856 1.856 0 001.179-.337 2.891 2.891 0 00.768-1.089q-.865-1.645-1.611-3.488a30.542 30.542 0 01-1.241-3.735h1.371q.151.616.363 1.33t.472 1.466q.261.754.562 1.509c.2.5.412.987.63 1.452q.521-1.44.905-2.852t.725-2.9h1.316q-.493 2.014-1.1 3.871t-1.3 3.475a7.336 7.336 0 01-.569 1.063 3.172 3.172 0 01-.652.732 2.344 2.344 0 01-.8.425 3.413 3.413 0 01-1.009.138 2.488 2.488 0 01-.315-.021 3.556 3.556 0 01-.61-.132 1.181 1.181 0 01-.185-.067z"/><path data-name="Path 33" d="M25.347 104.328a3.491 3.491 0 01-.637.281 3.225 3.225 0 01-1.1.172 3.566 3.566 0 01-1.212-.205 2.64 2.64 0 01-.995-.638 3.079 3.079 0 01-.671-1.075 4.285 4.285 0 01-.247-1.535 4.216 4.216 0 01.233-1.431 3.2 3.2 0 01.678-1.125 3.123 3.123 0 011.09-.74 3.764 3.764 0 011.452-.266 8.259 8.259 0 011.555.129c.443.088.816.167 1.118.24v6.353a3.006 3.006 0 01-.85 2.385 3.838 3.838 0 01-2.577.74 6.89 6.89 0 01-1.267-.11 7.191 7.191 0 01-1.035-.259l.233-1.111a5.655 5.655 0 00.939.266 5.537 5.537 0 001.158.117 2.412 2.412 0 001.638-.453 1.852 1.852 0 00.5-1.439v-.3zm-.013-5.29a3.985 3.985 0 00-.515-.1 6.116 6.116 0 00-.869-.048 1.939 1.939 0 00-1.583.671 2.706 2.706 0 00-.555 1.782 3.151 3.151 0 00.157 1.056 2.094 2.094 0 00.426.725 1.65 1.65 0 00.615.425 1.98 1.98 0 00.72.137 2.88 2.88 0 00.932-.144 2.32 2.32 0 00.672-.335v-4.174z"/><path data-name="Path 34" d="M29.71 96.62a.813.813 0 01-.581-.226.894.894 0 010-1.22.865.865 0 011.164 0 .894.894 0 010 1.22.82.82 0 01-.583.226zm.644 8.414h-1.276v-7.125h1.276z"/><path data-name="Path 35" d="M32.427 101.486a4.549 4.549 0 01.274-1.65 3.427 3.427 0 01.727-1.172 2.97 2.97 0 011.041-.7 3.248 3.248 0 011.206-.233 2.745 2.745 0 012.206.9 4.128 4.128 0 01.768 2.733v.212a2.125 2.125 0 01-.014.239h-4.879a2.6 2.6 0 00.644 1.686 2.358 2.358 0 001.755.577 4.664 4.664 0 001.13-.117 4.021 4.021 0 00.693-.226l.179 1.069a3.723 3.723 0 01-.816.261 5.853 5.853 0 01-1.323.137 4.206 4.206 0 01-1.611-.281 3 3 0 01-1.12-.777 3.176 3.176 0 01-.652-1.171 5 5 0 01-.208-1.487zm4.893-.7a2.142 2.142 0 00-.432-1.418 1.491 1.491 0 00-1.228-.555 1.667 1.667 0 00-.773.172 1.782 1.782 0 00-.569.446 2.034 2.034 0 00-.363.629 3.137 3.137 0 00-.171.725h3.535z"/><path data-name="Path 36" d="M40.749 98.114q.439-.11 1.165-.233a10.069 10.069 0 011.672-.122 3.617 3.617 0 011.412.239 2.216 2.216 0 01.9.672 2.594 2.594 0 01.474 1.034 6.067 6.067 0 01.137 1.33v4h-1.277v-3.727a6.082 6.082 0 00-.089-1.122 1.9 1.9 0 00-.295-.753 1.158 1.158 0 00-.549-.419 2.409 2.409 0 00-.85-.13c-.138 0-.279 0-.425.013s-.286.021-.418.035-.252.029-.356.048l-.225.042v6.015h-1.276z"/><path data-name="Path 37" d="M48.514 101.486a4.524 4.524 0 01.274-1.65 3.443 3.443 0 01.725-1.172 2.97 2.97 0 011.041-.7 3.256 3.256 0 011.206-.233 2.748 2.748 0 012.207.9 4.128 4.128 0 01.767 2.733v.212a2.14 2.14 0 01-.013.239h-4.873a2.591 2.591 0 00.644 1.686 2.355 2.355 0 001.755.577 4.67 4.67 0 001.13-.117 4.056 4.056 0 00.693-.226l.178 1.069a3.746 3.746 0 01-.816.261 5.856 5.856 0 01-1.323.137 4.214 4.214 0 01-1.611-.281 3.013 3.013 0 01-1.117-.775 3.157 3.157 0 01-.651-1.171 4.96 4.96 0 01-.216-1.489zm4.893-.7a2.143 2.143 0 00-.433-1.418 1.491 1.491 0 00-1.227-.555 1.675 1.675 0 00-.774.172 1.8 1.8 0 00-.569.446 2.009 2.009 0 00-.362.629 3.022 3.022 0 00-.171.725h3.543z"/><path data-name="Path 38" d="M62.032 104.09q2.082 0 2.082-1.425a1.427 1.427 0 00-.185-.749 1.765 1.765 0 00-.5-.534 3.5 3.5 0 00-.72-.39c-.268-.11-.555-.219-.857-.33a8.674 8.674 0 01-.987-.4 3.409 3.409 0 01-.809-.534 2.252 2.252 0 01-.542-.734 2.409 2.409 0 01-.2-1.027 2.381 2.381 0 01.85-1.946 3.585 3.585 0 012.343-.7 6.11 6.11 0 011.57.187 3.533 3.533 0 011.034.4l-.421 1.082a3.75 3.75 0 00-.857-.349 4.58 4.58 0 00-1.323-.172 2.884 2.884 0 00-.713.084 1.829 1.829 0 00-.574.246 1.242 1.242 0 00-.392.419 1.193 1.193 0 00-.144.6 1.26 1.26 0 00.151.644 1.485 1.485 0 00.425.46 3.588 3.588 0 00.637.363c.241.11.508.218.8.328.411.165.789.331 1.13.494a3.729 3.729 0 01.891.59 2.352 2.352 0 01.583.816 2.859 2.859 0 01.207 1.143 2.242 2.242 0 01-.912 1.92 4.276 4.276 0 01-2.57.671 6.666 6.666 0 01-1.036-.075 7.676 7.676 0 01-.843-.179 4.977 4.977 0 01-.637-.218 5.45 5.45 0 01-.418-.2l.4-1.1a5.953 5.953 0 00.959.4 4.982 4.982 0 001.578.215z"/><path data-name="Path 39" d="M67.098 101.486a4.524 4.524 0 01.274-1.65 3.443 3.443 0 01.725-1.172 2.969 2.969 0 011.042-.7 3.248 3.248 0 011.206-.233 2.745 2.745 0 012.206.9 4.128 4.128 0 01.768 2.733v.212a2.13 2.13 0 01-.014.239h-4.878a2.6 2.6 0 00.644 1.686 2.355 2.355 0 001.755.577 4.671 4.671 0 001.13-.117 4.021 4.021 0 00.693-.226l.178 1.069a3.73 3.73 0 01-.815.261 5.853 5.853 0 01-1.323.137 4.21 4.21 0 01-1.611-.281 3.013 3.013 0 01-1.117-.775 3.157 3.157 0 01-.651-1.171 4.959 4.959 0 01-.212-1.489zm4.893-.7a2.142 2.142 0 00-.432-1.418 1.491 1.491 0 00-1.228-.555 1.675 1.675 0 00-.774.172 1.777 1.777 0 00-.568.446 1.989 1.989 0 00-.363.629 3.14 3.14 0 00-.172.725h3.536z"/><path data-name="Path 40" d="M78.051 97.758a3.535 3.535 0 01.376.021c.142.013.282.031.418.055s.263.046.376.068.2.043.254.062l-.219 1.111a4.087 4.087 0 00-1.4-.205 3.357 3.357 0 00-.706.074c-.233.05-.387.086-.458.1v5.989h-1.274v-6.822a8.584 8.584 0 011.125-.309 7.218 7.218 0 011.508-.144z"/><path data-name="Path 41" d="M87.055 97.909a36.41 36.41 0 01-1.256 3.84q-.721 1.837-1.392 3.288h-1.152q-.672-1.45-1.39-3.288a35.886 35.886 0 01-1.253-3.838h1.369q.164.67.391 1.432t.483 1.506c.169.5.34.978.513 1.445s.339.881.493 1.248c.156-.366.319-.78.494-1.248s.345-.947.513-1.445.33-1 .48-1.508.281-.985.39-1.432z"/><path data-name="Path 42" d="M89.338 96.62a.818.818 0 01-.583-.226.894.894 0 010-1.22.866.866 0 011.165 0 .9.9 0 010 1.22.822.822 0 01-.582.226zm.644 8.414h-1.276v-7.125h1.276z"/><path data-name="Path 43" d="M95.538 105.199a3.911 3.911 0 01-1.51-.275 3.065 3.065 0 01-1.1-.768 3.208 3.208 0 01-.664-1.171 4.867 4.867 0 01-.218-1.5 4.533 4.533 0 01.239-1.508 3.569 3.569 0 01.679-1.186 3.02 3.02 0 011.075-.78 3.492 3.492 0 011.418-.282 5.728 5.728 0 01.961.082 4.507 4.507 0 01.918.261l-.287 1.082a3.054 3.054 0 00-.666-.218 3.76 3.76 0 00-.8-.082 2.034 2.034 0 00-1.636.67 2.961 2.961 0 00-.569 1.959 4.018 4.018 0 00.131 1.056 2.148 2.148 0 00.411.822 1.828 1.828 0 00.718.527 2.738 2.738 0 001.069.186 4.054 4.054 0 00.918-.1 3.3 3.3 0 00.645-.205l.179 1.069a1.336 1.336 0 01-.316.131 4.343 4.343 0 01-.465.109c-.173.031-.359.059-.555.082s-.387.039-.575.039z"/><path data-name="Path 44" d="M98.632 101.486a4.524 4.524 0 01.274-1.65 3.427 3.427 0 01.727-1.172 2.954 2.954 0 011.042-.7 3.247 3.247 0 011.206-.233 2.745 2.745 0 012.206.9 4.128 4.128 0 01.768 2.733v.212a1.878 1.878 0 01-.014.239h-4.879a2.6 2.6 0 00.644 1.686 2.355 2.355 0 001.755.577 4.67 4.67 0 001.13-.117 4.021 4.021 0 00.693-.226l.178 1.069a3.745 3.745 0 01-.816.261 5.854 5.854 0 01-1.323.137 4.214 4.214 0 01-1.611-.281 3.012 3.012 0 01-1.117-.775 3.156 3.156 0 01-.651-1.171 4.959 4.959 0 01-.212-1.489zm4.893-.7a2.142 2.142 0 00-.432-1.418 1.493 1.493 0 00-1.228-.555 1.675 1.675 0 00-.774.172 1.782 1.782 0 00-.569.446 1.99 1.99 0 00-.363.629 3.078 3.078 0 00-.171.725h3.536z"/><path data-name="Path 45" d="M108.61 104.117a2.527 2.527 0 001.157-.2.7.7 0 00.377-.658.873.873 0 00-.37-.74 5.858 5.858 0 00-1.22-.617c-.274-.11-.537-.222-.788-.337a2.751 2.751 0 01-.652-.4 1.744 1.744 0 01-.439-.561 2 2 0 01.535-2.31 2.987 2.987 0 011.9-.555 5.261 5.261 0 01.6.035c.2.023.388.05.562.082s.326.066.46.1.234.07.309.1l-.234 1.1a3.306 3.306 0 00-.644-.225 4.151 4.151 0 00-1.056-.117 1.935 1.935 0 00-.932.214.705.705 0 00-.4.665.911.911 0 00.091.411.955.955 0 00.274.321 2.172 2.172 0 00.46.267c.181.082.4.169.657.261.338.127.64.253.9.376a2.781 2.781 0 01.679.433 1.653 1.653 0 01.432.6 2.171 2.171 0 01.151.857 1.7 1.7 0 01-.732 1.494 3.65 3.65 0 01-2.09.507 5.447 5.447 0 01-1.481-.158 7.2 7.2 0 01-.725-.24l.232-1.1c.146.056.381.137.7.246a4.041 4.041 0 001.287.149z"/></g><g data-name="Group 7" fill="#fff"><path data-name="Path 46" d="M12.106 87.922a13.157 13.157 0 01-4.938-.891 10.479 10.479 0 01-3.824-2.6 11.7 11.7 0 01-2.47-4.215A17.366 17.366 0 010 74.48a15.617 15.617 0 01.984-5.734 12.44 12.44 0 012.656-4.218 11.249 11.249 0 013.9-2.6 12.678 12.678 0 014.753-.893 16.878 16.878 0 012.877.223 17.773 17.773 0 012.228.52 10.748 10.748 0 011.541.594 8.968 8.968 0 01.817.446l-1.04 2.97a5.946 5.946 0 00-.966-.483q-.632-.259-1.43-.52a13.029 13.029 0 00-1.746-.427 10.968 10.968 0 00-1.912-.167 9.192 9.192 0 00-3.677.706A7.615 7.615 0 006.2 66.941a9.239 9.239 0 00-1.764 3.249 14.014 14.014 0 00-.612 4.288 15.327 15.327 0 00.537 4.2 9.192 9.192 0 001.616 3.25 7.259 7.259 0 002.693 2.1 8.936 8.936 0 003.77.742 13.806 13.806 0 004.121-.519 18 18 0 002.451-.929l.928 2.97a5.17 5.17 0 01-.928.464 12.508 12.508 0 01-1.671.539 21.311 21.311 0 01-2.34.446 20.671 20.671 0 01-2.895.181z"/><path data-name="Path 47" d="M21.949 87.365V59.144l3.454-.594v9.877a11.685 11.685 0 012.06-.576 11.861 11.861 0 012.173-.2 9.77 9.77 0 013.824.65 5.988 5.988 0 012.433 1.819 7.073 7.073 0 011.281 2.8 16.294 16.294 0 01.37 3.6v10.845H34.09v-10.1a16.46 16.46 0 00-.241-3.045 5.144 5.144 0 00-.8-2.042 3.174 3.174 0 00-1.486-1.134 6.52 6.52 0 00-2.3-.353 9.23 9.23 0 00-1.152.075c-.4.049-.774.106-1.133.166s-.681.13-.966.205a5.58 5.58 0 00-.612.186v16.042z"/><path data-name="Path 48" d="M40.186 77.751a12.31 12.31 0 01.742-4.474 9.371 9.371 0 011.968-3.175 7.977 7.977 0 012.823-1.893 8.807 8.807 0 013.267-.631 7.439 7.439 0 015.975 2.428q2.079 2.432 2.08 7.409v.576a5.325 5.325 0 01-.037.65H43.789a7.062 7.062 0 001.746 4.568 6.386 6.386 0 004.753 1.559 12.7 12.7 0 003.063-.317 10.993 10.993 0 001.874-.613l.483 2.9a10.181 10.181 0 01-2.21.706 15.715 15.715 0 01-3.583.371 11.364 11.364 0 01-4.363-.761 8.126 8.126 0 01-3.026-2.1 8.571 8.571 0 01-1.765-3.174 13.392 13.392 0 01-.575-4.029zm13.256-1.9a5.8 5.8 0 00-1.17-3.844 4.031 4.031 0 00-3.324-1.5 4.55 4.55 0 00-2.1.464 4.947 4.947 0 00-1.54 1.208 5.526 5.526 0 00-.984 1.707 8.415 8.415 0 00-.463 1.965z"/><path data-name="Path 49" d="M64.448 84.877a6.8 6.8 0 003.138-.557 1.885 1.885 0 001.021-1.782 2.366 2.366 0 00-1-2.006 15.938 15.938 0 00-3.305-1.671q-1.116-.444-2.136-.91a7.482 7.482 0 01-1.763-1.1 4.752 4.752 0 01-1.188-1.523 4.859 4.859 0 01-.446-2.191 4.918 4.918 0 011.893-4.066 8.087 8.087 0 015.161-1.5 14.567 14.567 0 011.634.093q.816.094 1.523.223c.47.087.884.181 1.244.279s.637.186.836.26l-.631 2.971a8.72 8.72 0 00-1.746-.612 11.223 11.223 0 00-2.859-.317 5.283 5.283 0 00-2.524.576 1.909 1.909 0 00-1.077 1.8 2.444 2.444 0 00.241 1.113 2.571 2.571 0 00.744.873 6.087 6.087 0 001.243.725q.743.334 1.783.7 1.374.521 2.45 1.021a7.68 7.68 0 011.837 1.175 4.508 4.508 0 011.17 1.616 5.866 5.866 0 01.409 2.321 4.6 4.6 0 01-1.987 4.047 9.89 9.89 0 01-5.663 1.374 14.817 14.817 0 01-4.011-.427 20.456 20.456 0 01-1.968-.651l.631-2.97q.594.223 1.894.669a10.92 10.92 0 003.452.447z"/><path data-name="Path 50" d="M74.541 87.365V59.144l3.454-.594v9.877a11.686 11.686 0 012.06-.576 11.861 11.861 0 012.173-.2 9.77 9.77 0 013.824.65 5.988 5.988 0 012.433 1.819 7.073 7.073 0 011.281 2.8 16.294 16.294 0 01.37 3.6v10.845h-3.454v-10.1a16.46 16.46 0 00-.241-3.045 5.144 5.144 0 00-.8-2.042 3.174 3.174 0 00-1.486-1.134 6.52 6.52 0 00-2.3-.353 9.244 9.244 0 00-1.152.075c-.4.049-.774.106-1.133.166s-.681.13-.966.205a5.577 5.577 0 00-.612.186v16.042z"/><path data-name="Path 51" d="M95.451 64.566a2.215 2.215 0 01-1.578-.613 2.425 2.425 0 010-3.3 2.339 2.339 0 013.157 0 2.425 2.425 0 010 3.3 2.212 2.212 0 01-1.579.613zm1.746 22.8h-3.454V68.057h3.458v19.309z"/><path data-name="Path 52" d="M108.221 67.649c.3 0 .637.017 1.021.055s.761.087 1.134.149.711.123 1.02.186a6.664 6.664 0 01.687.167l-.593 3.007a11.63 11.63 0 00-1.354-.353 11.92 11.92 0 00-2.433-.2 9.061 9.061 0 00-1.913.2q-.947.205-1.243.279v16.222h-3.457V68.873a23.683 23.683 0 013.045-.836 19.546 19.546 0 014.086-.388z"/><path data-name="Path 53" d="M112.135 77.751a12.309 12.309 0 01.743-4.474 9.369 9.369 0 011.967-3.175 7.977 7.977 0 012.823-1.893 8.807 8.807 0 013.267-.631 7.435 7.435 0 015.978 2.431q2.08 2.432 2.08 7.409v.576a5.321 5.321 0 01-.037.65h-13.22a7.061 7.061 0 001.746 4.568 6.386 6.386 0 004.753 1.559 12.7 12.7 0 003.064-.315 10.992 10.992 0 001.874-.613l.483 2.9a10.2 10.2 0 01-2.21.706 15.715 15.715 0 01-3.583.371 11.364 11.364 0 01-4.363-.761 8.121 8.121 0 01-3.027-2.1 8.571 8.571 0 01-1.764-3.175 13.467 13.467 0 01-.574-4.033zm13.258-1.9a5.806 5.806 0 00-1.175-3.84 4.031 4.031 0 00-3.324-1.5 4.55 4.55 0 00-2.1.464 4.947 4.947 0 00-1.54 1.208 5.553 5.553 0 00-.985 1.707 8.414 8.414 0 00-.464 1.968z"/><path data-name="Path 54" d="M150.121 87.922a13.162 13.162 0 01-4.938-.891 10.513 10.513 0 01-3.825-2.6 11.677 11.677 0 01-2.469-4.215 17.376 17.376 0 01-.873-5.736 15.594 15.594 0 01.983-5.734 12.437 12.437 0 012.654-4.215 11.259 11.259 0 013.9-2.6 12.674 12.674 0 014.753-.893 16.893 16.893 0 012.878.223 17.75 17.75 0 012.227.52 10.691 10.691 0 011.541.594 9.128 9.128 0 01.817.446l-1.04 2.97a5.946 5.946 0 00-.966-.483q-.63-.259-1.429-.52a13.116 13.116 0 00-1.746-.427 10.977 10.977 0 00-1.912-.167 9.192 9.192 0 00-3.677.706 7.6 7.6 0 00-2.784 2.043 9.26 9.26 0 00-1.765 3.249 14.014 14.014 0 00-.612 4.288 15.236 15.236 0 00.54 4.2 9.19 9.19 0 001.614 3.25 7.268 7.268 0 002.693 2.1 8.932 8.932 0 003.77.742 13.811 13.811 0 004.121-.519 17.91 17.91 0 002.45-.929l.93 2.97a5.233 5.233 0 01-.93.464 12.489 12.489 0 01-1.67.539 21.312 21.312 0 01-2.34.446 20.7 20.7 0 01-2.895.179z"/><path data-name="Path 55" d="M176.598 77.712a12.2 12.2 0 01-.667 4.158 9.557 9.557 0 01-1.876 3.194 8.25 8.25 0 01-2.877 2.06 9.508 9.508 0 01-7.279 0 8.244 8.244 0 01-2.877-2.06 9.538 9.538 0 01-1.876-3.194 13.232 13.232 0 010-8.3 9.489 9.489 0 011.876-3.213 8.239 8.239 0 012.877-2.06 9.508 9.508 0 017.279 0 8.275 8.275 0 012.877 2.06 9.52 9.52 0 011.876 3.215 12.252 12.252 0 01.667 4.14zm-3.6 0a8.3 8.3 0 00-1.468-5.18 5.121 5.121 0 00-7.983 0 8.3 8.3 0 00-1.467 5.18 8.3 8.3 0 001.467 5.18 5.121 5.121 0 007.983 0 8.3 8.3 0 001.466-5.18z"/><path data-name="Path 56" d="M194.836 86.809q-1.191.3-3.136.63a26.988 26.988 0 01-4.514.334 9.574 9.574 0 01-3.75-.65 6.049 6.049 0 01-2.45-1.837 7.452 7.452 0 01-1.336-2.8 14.6 14.6 0 01-.41-3.583V68.057h3.455v10.1q0 3.529 1.113 5.051a4.34 4.34 0 003.751 1.523c.37 0 .752-.012 1.149-.037s.767-.056 1.115-.093.663-.075.947-.111a2.773 2.773 0 00.612-.13v-16.3h3.453z"/><path data-name="Path 57" d="M198.731 68.613q1.187-.3 3.158-.63a27.277 27.277 0 014.529-.334 9.78 9.78 0 013.825.65 6.015 6.015 0 012.434 1.819 7.055 7.055 0 011.28 2.8 16.3 16.3 0 01.37 3.6v10.85h-3.454v-10.1a16.461 16.461 0 00-.241-3.045 5.144 5.144 0 00-.8-2.042 3.185 3.185 0 00-1.486-1.134 6.519 6.519 0 00-2.3-.353c-.37 0-.755.014-1.152.037s-.773.057-1.132.093-.681.08-.966.13-.491.087-.614.111v16.3h-3.451V68.613z"/><path data-name="Path 58" d="M221.282 68.056h7.317v2.9h-7.317v8.911a10.562 10.562 0 00.225 2.4 3.587 3.587 0 00.665 1.486 2.412 2.412 0 001.117.761 4.969 4.969 0 001.559.223 7.344 7.344 0 002.506-.353q.949-.353 1.318-.5l.67 2.859a12.975 12.975 0 01-1.819.651 10.359 10.359 0 01-2.972.389 9 9 0 01-3.25-.5 4.742 4.742 0 01-2.06-1.5 6.021 6.021 0 01-1.097-2.485 16.382 16.382 0 01-.316-3.4V62.672l3.453-.594v5.978z"/><path data-name="Path 59" d="M229.664 90.968a6.656 6.656 0 001.06.353 5.1 5.1 0 001.28.168 5.022 5.022 0 003.193-.911 7.849 7.849 0 002.08-2.951q-2.34-4.457-4.363-9.451a81.818 81.818 0 01-3.361-10.118h3.713q.409 1.67.985 3.6t1.28 3.973q.707 2.042 1.523 4.085t1.71 3.936q1.414-3.9 2.45-7.724t1.968-7.872h3.563q-1.337 5.459-2.969 10.491t-3.529 9.412a19.686 19.686 0 01-1.54 2.877 8.72 8.72 0 01-1.765 1.987 6.445 6.445 0 01-2.17 1.151 9.288 9.288 0 01-2.73.371 6.856 6.856 0 01-.853-.056c-.3-.037-.59-.087-.874-.147s-.546-.13-.781-.205a3.69 3.69 0 01-.5-.186z"/></g><path data-name="Path 60" d="M225.592 16.065a.654.654 0 00-.026-.12c-.069-.079.093 0-.247-.4l.007-.006a.609.609 0 00-.062-.058.644.644 0 00-.261-.152.845.845 0 00-.366-.073l-.065.008a.862.862 0 00-.159.023 4.053 4.053 0 00-.709.233 138.991 138.991 0 01-23.124 6.7 135.09 135.09 0 01-8.616-14.74 133.406 133.406 0 01-2.407-5.035c-.275-.6-.485-1.069-.635-1.4-.074-.167-.136-.294-.187-.4a.919.919 0 00-.093-.162.657.657 0 00-.1-.139c-.1-.038-.06-.256-.73-.349-.7.093-.663.31-.756.349a4.054 4.054 0 00-.431.814 138.766 138.766 0 01-11.6 21.06 135.88 135.88 0 01-16.355-4.28 148.446 148.446 0 01-5.289-1.86c-.63-.237-1.127-.427-1.483-.558a3.559 3.559 0 00-.757-.241 1.289 1.289 0 00-.16-.017h-.02a.74.74 0 00-.352.066c-.031.013-.065.026-.1.042a1.181 1.181 0 00-.233.172.682.682 0 00-.174.232.841.841 0 00-.109.391v.066a3.087 3.087 0 00.265.934 137.879 137.879 0 016.987 24.614c1.756 7.09 4.768 13.529 10.938 16.283a15.833 15.833 0 006.764 1.446 18.953 18.953 0 0012.858-5.135 18.914 18.914 0 0012.852 5.133 15.887 15.887 0 006.79-1.453c6.144-2.741 9.16-9.185 10.9-16.214a133.718 133.718 0 014.577-17.9 132.61 132.61 0 011.862-5.288c.231-.631.42-1.128.557-1.489a5.2 5.2 0 00.227-.684.876.876 0 00.034-.247v-.008a.6.6 0 00-.012-.158zm-25.747 8.495c2.614 4.335 4.422 8.749 4.414 12.851a12.7 12.7 0 01-.843 4.624c-1.661 4.75-6.828 9.194-13.352 9.951a18.944 18.944 0 004.177-11.773 15.814 15.814 0 00-1.46-6.793 14.706 14.706 0 00-3.466-4.756 30.065 30.065 0 0110.118-4.269c.089-.017.175-.035.266-.051.048.074.097.144.146.216zm-23.943-.215l.228.043a30.123 30.123 0 0110.163 4.279 14.824 14.824 0 00-3.485 4.781 15.8 15.8 0 00-1.447 6.765 18.921 18.921 0 004.184 11.775c-6.53-.756-11.7-5.2-13.348-9.924a12.733 12.733 0 01-.853-4.647c-.008-4.119 1.811-8.549 4.442-12.9.039-.057.071-.117.115-.172zm15.14 9.878a13.916 13.916 0 011.282 5.991 17.047 17.047 0 01-4.523 11.446 17.028 17.028 0 01-4.526-11.448 13.982 13.982 0 011.272-5.963 12.855 12.855 0 013.258-4.373 12.761 12.761 0 013.237 4.347zm-3.251-30.979a.232.232 0 00.012-.024 139.684 139.684 0 0010.75 19.433 30.777 30.777 0 00-10.747 4.732 30.8 30.8 0 00-10.759-4.731 137.245 137.245 0 008.3-14.308 142.01 142.01 0 002.444-5.102zm-18.808 53.078c-5.311-2.33-8.175-8.1-9.866-14.942a134.961 134.961 0 00-4.618-18.039 150.28 150.28 0 00-1.888-5.361l-.059-.161a139.379 139.379 0 0021.344 6.142c-2.594 4.4-4.464 8.939-4.471 13.455a14.636 14.636 0 00.973 5.31c1.956 5.488 7.723 10.361 15.036 11.171a17.023 17.023 0 01-10.487 3.694 13.948 13.948 0 01-5.964-1.269zm47.491-14.886c-1.674 6.788-4.545 12.553-9.828 14.871a13.988 13.988 0 01-5.99 1.284 17.013 17.013 0 01-10.49-3.7c7.312-.807 13.086-5.679 15.05-11.194a14.692 14.692 0 00.96-5.29c-.008-4.534-1.888-9.084-4.468-13.454a137.852 137.852 0 0015.821-4.194 143.847 143.847 0 005.36-1.887l.166-.06a137.936 137.936 0 00-6.581 23.624z" fill="#e27866"/></g></g></svg>