<svg xmlns="http://www.w3.org/2000/svg" width="30" height="30"><g opacity=".653" fill="#e27866"><path data-name="Path 64" d="M21.721 0H8.279A8.288 8.288 0 000 8.279v13.442A8.288 8.288 0 008.279 30h13.442A8.288 8.288 0 0030 21.721V8.279A8.288 8.288 0 0021.721 0zm5.618 21.721a5.624 5.624 0 01-5.617 5.617H8.279a5.623 5.623 0 01-5.617-5.617V8.279a5.624 5.624 0 015.617-5.617h13.442a5.624 5.624 0 015.617 5.617v13.442z"/><path data-name="Path 65" d="M15.002 7.27a7.73 7.73 0 107.73 7.73 7.739 7.739 0 00-7.73-7.73zm0 12.8A5.068 5.068 0 1120.069 15a5.074 5.074 0 01-5.067 5.068z"/><path data-name="Path 66" d="M23.054 5.013a1.951 1.951 0 101.381.571 1.96 1.96 0 00-1.381-.571z"/></g></svg>