<svg xmlns="http://www.w3.org/2000/svg" width="36.066" height="30"><path d="M35.492 3.49a14.281 14.281 0 01-2.487.839 7.754 7.754 0 002.047-3.259.407.407 0 00-.595-.474 14.349 14.349 0 01-3.8 1.571.969.969 0 01-.238.03 1.008 1.008 0 01-.666-.254A7.775 7.775 0 0024.608.001a8.313 8.313 0 00-2.463.38 7.533 7.533 0 00-5.077 5.428 8.3 8.3 0 00-.184 2.863.278.278 0 01-.07.218.288.288 0 01-.214.1h-.028A20.388 20.388 0 012.558 1.498a.407.407 0 00-.666.052 7.784 7.784 0 001.265 9.451 6.968 6.968 0 01-1.773-.687.407.407 0 00-.6.35 7.785 7.785 0 004.541 7.173h-.166a7 7 0 01-1.31-.125.407.407 0 00-.463.523 7.793 7.793 0 006.155 5.3A14.348 14.348 0 011.5 25.979H.6a.6.6 0 00-.582.449.616.616 0 00.295.681A21.341 21.341 0 0011.037 30a21.634 21.634 0 009.163-1.944 20.237 20.237 0 006.705-5.025 22.029 22.029 0 004.106-6.876 21.722 21.722 0 001.4-7.526v-.12a1.323 1.323 0 01.5-1.03A15.369 15.369 0 0036 4.087a.407.407 0 00-.5-.6z" fill="#e27866" opacity=".653"/></svg>